<svg id="eC6GtyUgsVv1" xmlns="http://www.w3.org/2000/svg" xmlns:xlink="http://www.w3.org/1999/xlink" viewBox="0 0 26 26" shape-rendering="geometricPrecision" text-rendering="geometricPrecision" project-id="5f269ef8493347f19c31ace5065a5e5d" export-id="27ab301fb61a4f89b5398b9793c7085b" cached="false" width="26" height="26">
    <g transform="matrix(.75 0 0 0.75-1.99325-1.996609)" clip-path="url(#eC6GtyUgsVv3)">
        <clipPath id="eC6GtyUgsVv3">
            <rect width="40" height="40" rx="0" ry="0"/>
        </clipPath>
        <g>
            <g transform="translate(6.551 10.69)">
                <path d="M1.368,-23.42l5.419-.48c0,0,2.23-5.672,3.194-6.025s10.095-.6,10.857,0s2.762,6.025,2.762,6.025l1.927.479c.786077.126745,1.364939.803777,1.368,1.6v5.937c-.029791.726461-.641432,1.29205-1.368,1.265h-24.159c-.726943.027041-1.338744-.539143-1.368-1.266v-5.937c.004037-.795465.582666-1.47138,1.368-1.598Z" transform="translate(0 30.287)" fill="#f16822"/>
                <path d="M5852.485,-6643.565c0,0,1.533.719,1.72.471.094-.124.5-1.611,1.074-3.085.526-1.357,1.212-2.7,1.208-2.812-.009-.222-1.419,0-1.419,0-.516266.834264-.974676,1.702971-1.372,2.6-.616,1.402-1.211,2.826-1.211,2.826Z" transform="translate(-5845.7 6649.98)" fill="#6fd8ff"/>
                <path d="M5864.344,-6643.5c-.234-.329,1.8-5.792,2.118-5.947s6.838-.405,7.384-.083s2.078,4.323,1.72,4.9-2.528,1.258-3.858,1.342-7.13.116-7.364-.212Z" transform="translate(-5854.77 6650.45)" fill="#44c8ff"/>
                <path d="M5827.811,-6596.07c0,0-.266-4.581,3.918-4.562s4.4,4.563,4.4,4.563l-8.318-.001Z" transform="translate(-5826.77 6611.74)" fill="#2b2f36"/>
                <circle r="3.548" transform="translate(4.815 15.074)" fill="#5f5f5f"/>
                <circle r="2.548" transform="translate(4.815 15.074)" fill="#d3d3d3"/>
                <path d="M5896.232,-6595.815c0,0-.07-4.478,3.991-4.494s3.969,4.494,3.969,4.494h-7.96Z" transform="translate(-5879.59 6611.48)" fill="#2b2f36"/>
                <circle r="3.548" transform="translate(20.526 15.074)" fill="#5f5f5f"/>
                <path d="M2.255,0.012c1.030661-.000404,1.960061.620139,2.354758,1.57223s.176948,2.048194-.551696,2.777124-1.824663.94711-2.776908.552787-1.573154-1.32348-1.573154-2.354141c0-1.406831,1.140169-2.547448,2.547-2.548Z" transform="translate(18.267 12.526)" fill="#d3d3d3"/>
            </g>
        </g>
    </g>
    <g transform="matrix(.75 0 0 0.75 10.5 7.5)">
        <ellipse rx="2.25" ry="2.75" transform="translate(2.25 2.75)" fill="none" stroke="#000" stroke-width="1.5"/>
        <ellipse rx="2.25" ry="2.75" transform="translate(9.75 9.25)" fill="none" stroke="#000" stroke-width="1.5"/>
        <line x1="2" y1="12" x2="10" y2="0" fill="none" stroke="#000" stroke-width="1.5"/>
    </g>
</svg>
