<svg id="egnTa6Y0Jbf1" xmlns="http://www.w3.org/2000/svg" xmlns:xlink="http://www.w3.org/1999/xlink" viewBox="0 0 26 26" shape-rendering="geometricPrecision" text-rendering="geometricPrecision" project-id="dfaaed7032724b9da7224fbe6a4468f1" export-id="00cfac6b7c2a49f0b045ba1a3782ef91" cached="false" width="26" height="26">
    <g>
        <ellipse rx="8" ry="8" transform="translate(13 13)" fill="#dfdfdf" stroke-width="2"/>
    </g>
    <g transform="matrix(.3 0 0 0.3-1.999999-2)">
        <path d="M28.88,33.46c6.040599-9.276715,17.462767-13.476245,28.073875-10.321779s17.884208,12.91172,17.876125,23.981779" fill="none" stroke="#449c45" stroke-width="7" stroke-linecap="round" stroke-linejoin="round"/>
        <polyline points="66.66,45.31 74.83,55.44 82.99,45.31" fill="none" stroke="#449c45" stroke-width="7" stroke-linecap="round" stroke-linejoin="round"/>
        <path d="M71.12,66.54c-6.040599,9.276715-17.462767,13.476245-28.073875,10.321779s-17.884208-12.91172-17.876125-23.981779" fill="none" stroke="#449c45" stroke-width="7" stroke-linecap="round" stroke-linejoin="round"/>
        <polyline points="33.34,54.69 25.17,44.56 17.01,54.69" fill="none" stroke="#449c45" stroke-width="7" stroke-linecap="round" stroke-linejoin="round"/>
    </g>
    <g transform="matrix(.75 0 0 0.75 8.5 8.5)">
        <ellipse rx="2.25" ry="2.75" transform="translate(2.25 2.75)" fill="none" stroke="#000" stroke-width="1.5"/>
        <ellipse rx="2.25" ry="2.75" transform="translate(9.75 9.25)" fill="none" stroke="#000" stroke-width="1.5"/>
        <line x1="2" y1="12" x2="10" y2="0" fill="none" stroke="#000" stroke-width="1.5"/>
    </g>
</svg>
